<svg version="1.1" id="Layer_1" xmlns="http://www.w3.org/2000/svg" xmlns:xlink="http://www.w3.org/1999/xlink" x="0px" y="0px"
	 width="100%" viewBox="0 0 512 512" enable-background="new 0 0 512 512" xml:space="preserve">
<path fill="#000000" opacity="1.000000" stroke="none" 
	d="
M249.113693,339.876617 
	C280.583313,338.632660 309.602631,345.136658 335.295227,363.023804 
	C355.220032,376.895447 370.625366,394.394897 375.645386,419.156281 
	C378.918152,435.299316 371.439850,445.127319 355.043030,446.224487 
	C352.885803,446.368835 350.714508,446.329865 348.549713,446.329865 
	C287.257935,446.330261 225.966171,446.332794 164.674408,446.295532 
	C161.691116,446.293732 158.658127,446.213898 155.733353,445.692902 
	C141.380310,443.135895 135.410797,434.157288 138.160522,419.813354 
	C142.296829,398.236328 154.615875,381.877594 171.241272,368.463623 
	C193.774994,350.282623 219.891373,341.454742 249.113693,339.876617 
z"/>
<path fill="#000000" opacity="1.000000" stroke="none" 
	d="
M201.399719,239.689301 
	C206.225235,217.429993 218.708160,201.718567 239.781860,194.272202 
	C260.455902,186.967010 279.098663,192.206635 295.226166,206.811050 
	C314.952728,224.674637 320.169495,258.569733 306.676910,283.337524 
	C296.258820,302.461639 280.752838,314.704407 258.269623,315.185303 
	C234.873795,315.685730 218.696579,303.427368 207.656647,283.706635 
	C200.019775,270.064789 198.823288,255.312943 201.399719,239.689301 
z"/>
<path fill="#000000" opacity="1.000000" stroke="none" 
	d="
M235.982788,130.987244 
	C267.024109,137.617096 295.267914,132.681030 320.640961,113.658234 
	C326.705078,109.111839 332.671143,109.742126 336.401611,114.973320 
	C340.097595,120.156128 338.678802,126.934631 333.005951,131.196686 
	C290.882416,162.844330 231.000183,163.142090 188.756058,131.913986 
	C182.587906,127.354301 180.702454,122.937775 182.619843,117.540428 
	C185.092697,110.579391 191.563950,108.144867 197.829300,112.120094 
	C203.868149,115.951591 209.446198,120.471672 215.936600,123.641075 
	C222.257156,126.727539 228.754196,129.224197 235.982788,130.987244 
z"/>
<path fill="#000000" opacity="1.000000" stroke="none" 
	d="
M381.889954,288.131165 
	C385.364441,296.352448 389.817413,303.542938 394.824890,310.453522 
	C399.587585,317.026337 399.153656,322.385864 393.993347,326.222290 
	C388.540924,330.275848 382.223541,329.197144 377.453827,322.965363 
	C365.143158,306.880981 357.626312,288.655334 354.916077,268.662109 
	C350.430756,235.574005 357.417969,205.159348 377.257355,177.951874 
	C380.148804,173.986588 383.678925,171.556107 388.584076,172.006363 
	C397.649170,172.838440 401.277679,181.731064 395.545776,189.409653 
	C388.609955,198.701065 382.746399,208.534851 379.452972,219.684036 
	C372.682434,242.604065 373.170990,265.344177 381.889954,288.131165 
z"/>
<path fill="#000000" opacity="1.000000" stroke="none" 
	d="
M128.492157,197.483429 
	C126.379883,194.457870 124.421768,191.765076 122.545624,189.016327 
	C118.622528,183.268555 119.116165,178.130844 123.887138,174.489838 
	C128.957535,170.620316 135.303864,171.179016 139.483932,176.234756 
	C145.560684,183.584473 150.623169,191.655914 154.213028,200.483994 
	C171.540237,243.094513 168.192947,283.667236 141.810791,321.842743 
	C140.194336,324.181824 138.399567,326.341949 135.667740,327.532104 
	C131.073700,329.533600 125.755486,328.322479 122.545242,324.454865 
	C119.410965,320.678802 119.206207,316.455902 122.742805,311.619720 
	C131.392471,299.791443 138.233963,287.161133 141.122559,272.656769 
	C146.402573,246.144485 143.168396,221.028275 128.492157,197.483429 
z"/>
<path fill="#000000" opacity="1.000000" stroke="none" 
	d="
M298.460266,111.605392 
	C268.460114,124.266228 239.728561,122.550522 212.014389,106.051979 
	C209.311996,104.443214 206.689590,102.571960 204.396896,100.429909 
	C199.709717,96.050713 199.320145,89.324600 203.174469,84.642517 
	C206.653198,80.416710 212.761765,79.912384 217.953140,83.879684 
	C228.381302,91.848991 239.838486,96.954948 253.046814,98.156708 
	C269.952179,99.694832 285.447113,96.149780 299.378296,86.291962 
	C300.601257,85.426575 301.761749,84.471458 302.998688,83.627541 
	C308.181641,80.091278 313.713074,80.489426 317.408203,84.633965 
	C321.406281,89.118279 321.386749,95.507774 316.813568,99.953781 
	C311.642120,104.981377 305.350647,108.461868 298.460266,111.605392 
z"/>
<path fill="#000000" opacity="1.000000" stroke="none" 
	d="
M393.180603,222.377228 
	C396.110016,213.210800 400.172302,205.061539 405.557831,197.562683 
	C406.932068,195.649155 408.412384,193.881424 410.401154,192.596619 
	C415.115204,189.551132 420.845093,190.085190 424.584473,193.900543 
	C428.171722,197.560638 428.560669,202.910767 425.017151,207.541443 
	C417.909882,216.829056 412.748901,226.947327 411.081055,238.605240 
	C408.355927,257.653198 411.439606,275.367096 423.483948,290.953400 
	C429.904144,299.261566 428.008087,307.723267 419.296783,309.963440 
	C414.536041,311.187744 409.753510,309.088837 406.135925,303.949005 
	C389.294647,280.021149 384.871399,253.862228 392.197174,225.624481 
	C392.447723,224.658737 392.758270,223.708572 393.180603,222.377228 
z"/>
<path fill="#000000" opacity="1.000000" stroke="none" 
	d="
M107.264755,308.671997 
	C100.899429,311.136749 96.221741,310.177307 93.026443,306.023712 
	C89.804062,301.834930 89.725471,297.398529 93.942833,292.354340 
	C113.127312,269.408752 112.694229,230.953995 94.054161,208.449371 
	C89.241714,202.639160 89.897972,196.881592 94.744873,193.025223 
	C99.795975,189.006363 106.434158,189.801437 111.046135,195.525711 
	C120.219933,206.911972 125.713806,220.063431 128.030014,234.422836 
	C132.043335,259.303558 127.494026,282.399963 112.784218,303.185913 
	C111.340256,305.226318 109.932823,307.303162 107.264755,308.671997 
z"/>
<path fill="#000000" opacity="1.000000" stroke="none" 
	d="
M277.590729,58.628815 
	C280.203522,57.077316 282.437408,55.605625 284.794800,54.369602 
	C290.145081,51.564362 295.503174,52.732891 298.470917,57.225853 
	C301.657501,62.050117 300.835724,68.408737 296.257782,72.046417 
	C287.706879,78.841087 277.907990,82.969772 267.081970,84.128014 
	C252.839813,85.651733 239.629333,82.358093 227.593521,74.484642 
	C222.975540,71.463715 219.785492,67.794899 220.611923,61.764465 
	C221.563675,54.819527 228.267395,50.901821 234.682556,53.765995 
	C236.647324,54.643204 238.491180,55.826927 240.303497,57.004101 
	C252.282898,64.785202 264.605621,65.167145 277.590729,58.628815 
z"/>
<path fill="#000000" opacity="1.000000" stroke="none" 
	d="
M449.820374,289.331909 
	C442.831635,291.255829 439.574738,290.192230 435.505707,284.931427 
	C420.422516,265.430573 420.543121,234.716400 435.778381,215.486557 
	C439.950958,210.219925 446.791199,208.924271 451.681671,212.474152 
	C456.321045,215.841766 457.173950,221.787476 453.269653,227.528275 
	C442.915894,242.752319 442.686493,257.749481 453.158295,273.073273 
	C457.904053,280.017883 456.735413,284.734375 449.820374,289.331909 
z"/>
<path fill="#000000" opacity="1.000000" stroke="none" 
	d="
M63.044151,283.289673 
	C61.949501,279.022675 63.228848,275.687653 65.376869,272.559021 
	C75.589516,257.684113 75.463371,242.903748 65.304253,227.984604 
	C61.079056,221.779724 61.855728,215.948990 66.730690,212.530853 
	C72.058731,208.795013 78.948105,210.357101 83.226860,216.271225 
	C97.900284,236.552856 97.766777,264.490631 82.898781,284.932892 
	C77.185081,292.788727 67.959526,292.205872 63.044151,283.289673 
z"/>
</svg>